<svg aria-hidden="true" style="position:absolute;width:0;height:0" xmlns="http://www.w3.org/2000/svg" overflow="hidden"><defs><symbol id="icon-adobeillustrator" viewBox="0 0 32 32"><path fill="var(--color1, #ff7c00)" d="M0 .4v31.2h32V.4zm1.333 1.333h29.333v28.533H1.333zM11.1 18.067l-1.056 3.997c-.023.111-.067.136-.197.136H7.89c-.133 0-.153-.044-.133-.197l3.787-13.26c.067-.24.109-.451.131-1.111 0-.088.044-.133.111-.133h2.795c.088 0 .133.024.155.133l4.247 14.392c.023.111 0 .176-.111.176h-2.2c-.111 0-.176-.027-.197-.115l-1.1-4.02zm3.717-2.167c-.373-1.475-1.253-4.704-1.584-6.267h-.023c-.285 1.56-.989 4.2-1.54 6.267zm6-7.411c0-.857.593-1.364 1.364-1.364.813 0 1.364.549 1.364 1.364 0 .88-.573 1.364-1.387 1.364-.8 0-1.347-.484-1.341-1.364zm.15 3.032c0-.107.044-.147.155-.147h2.093c.117 0 .16.044.16.155v10.527c0 .111-.021.155-.153.155h-2.067c-.133 0-.177-.067-.177-.173z"/></symbol><symbol id="icon-adobephotoshop" viewBox="0 0 32 32"><path fill="var(--color2, #00c8ff)" d="M0 .4v31.2h32V.4zm1.333 1.333h29.333v28.533H1.333zm6.4 5.974c0-.089.187-.155.299-.155a73.618 73.618 0 013.437-.067c3.696 0 5.133 2.027 5.133 4.621 0 3.387-2.456 4.84-5.469 4.84-.507 0-.68-.023-1.033-.023v5.123c0 .111-.044.155-.153.155H7.888c-.111 0-.153-.04-.153-.151zm2.367 7.082c.307.021.549.021 1.08.021 1.56 0 3.027-.549 3.027-2.661 0-1.693-1.048-2.552-2.829-2.552-.528 0-1.033.021-1.276.044zm11.476-1.584c-1.056 0-1.408.528-1.408.968 0 .484.24.813 1.649 1.54 2.091 1.013 2.749 1.98 2.749 3.409 0 2.133-1.627 3.28-3.827 3.28-1.168 0-2.16-.244-2.733-.573-.087-.044-.107-.109-.107-.22v-1.956c0-.133.064-.177.152-.112a4.91 4.91 0 002.683.792c1.056 0 1.496-.44 1.496-1.035 0-.484-.307-.903-1.649-1.607-1.893-.907-2.685-1.827-2.685-3.369 0-1.716 1.341-3.147 3.673-3.147 1.147 0 1.952.176 2.392.373.109.067.133.176.133.264v1.827c0 .111-.067.177-.2.133-.592-.352-1.467-.573-2.319-.568z"/></symbol><symbol id="icon-html5" viewBox="0 0 32 32"><path fill="var(--color3, #e34f26)" d="M2 0h28l-2.547 28.751L15.969 32 4.55 28.749zm9.375 13l-.309-3.624 13.412.004.307-3.496L7.217 5.88l.931 10.68h12.168l-.435 4.568-3.88 1.072-3.94-1.08-.251-2.813H8.331l.44 5.561L16 25.801l7.172-1.924.992-10.876z"/></symbol><symbol id="icon-javascript" viewBox="0 0 32 32"><path fill="var(--color4, #f7df1e)" d="M0 0h32v32H0zm29.379 24.368c-.233-1.46-1.184-2.687-4.004-3.831-.981-.46-2.072-.78-2.396-1.52-.121-.44-.14-.68-.061-.94.2-.861 1.22-1.12 2.02-.88.52.16 1 .56 1.301 1.2 1.379-.901 1.379-.901 2.34-1.5-.36-.56-.539-.801-.781-1.04-.84-.94-1.959-1.42-3.779-1.379l-.94.119c-.901.22-1.76.7-2.28 1.34-1.52 1.721-1.081 4.721.759 5.961 1.82 1.36 4.481 1.659 4.821 2.94.32 1.56-1.16 2.06-2.621 1.88-1.081-.24-1.68-.781-2.34-1.781l-2.44 1.401c.28.64.6.919 1.08 1.479 2.32 2.341 8.12 2.221 9.161-1.339.039-.12.32-.94.099-2.2zm-11.978-9.66h-2.997c0 2.584-.012 5.152-.012 7.74 0 1.643.084 3.151-.184 3.615-.44.919-1.573.801-2.088.64-.528-.261-.796-.621-1.107-1.14-.084-.14-.147-.261-.169-.261l-2.433 1.5c.407.84 1 1.563 1.765 2.023 1.14.68 2.672.9 4.276.54 1.044-.301 1.944-.921 2.415-1.881.68-1.24.536-2.76.529-4.461.016-2.739 0-5.479 0-8.239z"/></symbol><symbol id="icon-wordpress" viewBox="0 0 32 32"><path fill="var(--color5, #21759b)" d="M28.625 9.1a14.342 14.342 0 011.757 6.9c0 5.305-2.875 9.941-7.151 12.433l4.393-12.703c.82-2.053 1.093-3.695 1.093-5.152 0-.54-.035-1.04-.093-1.48zm-10.641.139c.863-.04 1.643-.14 1.643-.14.776-.1.685-1.24-.089-1.199 0 0-2.34.18-3.84.18-1.419 0-3.8-.2-3.8-.2-.78-.04-.881 1.14-.1 1.18 0 0 .72.081 1.5.12l2.24 6.14-3.16 9.44L7.139 9.2c.865-.04 1.645-.133 1.645-.133.78-.1.688-1.24-.087-1.195 0 0-2.328.184-3.832.184-.267 0-.584-.011-.92-.02C6.548 4.2 10.98 1.62 16 1.62c3.745 0 7.153 1.429 9.715 3.777-.061-.004-.121-.012-.188-.012-1.413 0-2.416 1.231-2.416 2.552 0 1.187.684 2.191 1.413 3.375.548.96 1.187 2.191 1.187 3.969 0 1.22-.472 2.659-1.095 4.639l-1.433 4.78-5.2-15.48zM16 30.379c-1.412 0-2.775-.204-4.064-.583l4.316-12.541 4.42 12.116c.032.071.067.135.104.199-1.493.524-3.1.812-4.776.812zM1.615 16c0-2.085.448-4.067 1.247-5.853l6.859 18.799c-4.795-2.332-8.104-7.251-8.105-12.945zM16 0C7.18 0 0 7.18 0 16s7.18 16 16 16 16-7.18 16-16S24.82 0 16 0z"/></symbol><symbol id="icon-file-empty" viewBox="0 0 32 32"><path d="M28.681 7.159c-.694-.947-1.662-2.053-2.724-3.116s-2.169-2.03-3.116-2.724C21.229.137 20.448 0 20 0H4.5A2.503 2.503 0 002 2.5v27C2 30.878 3.122 32 4.5 32h23c1.378 0 2.5-1.122 2.5-2.5V10c0-.448-.137-1.23-1.319-2.841zm-4.138-1.702A27.334 27.334 0 0126.811 8H22V3.189a27.334 27.334 0 012.543 2.268zM28 29.5c0 .271-.229.5-.5.5h-23a.507.507 0 01-.5-.5v-27c0-.271.229-.5.5-.5H20v7a1 1 0 001 1h7v19.5z"/></symbol><symbol id="icon-bookmark" viewBox="0 0 32 32"><path d="M6 0v32l10-10 10 10V0z"/></symbol><symbol id="icon-star-empty" viewBox="0 0 32 32"><path d="M32 12.408l-11.056-1.607L16 .783l-4.944 10.018L0 12.408l8 7.798-1.889 11.011L16 26.018l9.889 5.199L24 20.206l8-7.798zM16 23.547l-6.983 3.671 1.334-7.776-5.65-5.507 7.808-1.134 3.492-7.075 3.492 7.075 7.807 1.134-5.65 5.507 1.334 7.776-6.983-3.671z"/></symbol><symbol id="icon-star-full" viewBox="0 0 32 32"><path d="M32 12.408l-11.056-1.607L16 .783l-4.944 10.018L0 12.408l8 7.798-1.889 11.011L16 26.018l9.889 5.199L24 20.206l8-7.798z"/></symbol><symbol id="icon-plus" viewBox="0 0 32 32"><path d="M31 12H20V1a1 1 0 00-1-1h-6a1 1 0 00-1 1v11H1a1 1 0 00-1 1v6a1 1 0 001 1h11v11a1 1 0 001 1h6a1 1 0 001-1V20h11a1 1 0 001-1v-6a1 1 0 00-1-1z"/></symbol><symbol id="icon-minus" viewBox="0 0 32 32"><path d="M0 13v6a1 1 0 001 1h30a1 1 0 001-1v-6a1 1 0 00-1-1H1a1 1 0 00-1 1z"/></symbol><symbol id="icon-arrow-right2" viewBox="0 0 32 32"><path d="M19.414 27.414l10-10a2 2 0 000-2.828l-10-10a2 2 0 10-2.828 2.828L23.172 14H4a2 2 0 100 4h19.172l-6.586 6.586c-.39.39-.586.902-.586 1.414s.195 1.024.586 1.414a2 2 0 002.828 0z"/></symbol><symbol id="icon-arrow-left2" viewBox="0 0 32 32"><path d="M12.586 27.414l-10-10a2 2 0 010-2.828l10-10a2 2 0 112.828 2.828L8.828 14H28a2 2 0 110 4H8.828l6.586 6.586c.39.39.586.902.586 1.414s-.195 1.024-.586 1.414a2 2 0 01-2.828 0z"/></symbol><symbol id="icon-circle-right" viewBox="0 0 32 32"><path d="M16 0C7.163 0 0 7.163 0 16s7.163 16 16 16 16-7.163 16-16S24.837 0 16 0zm0 29C8.82 29 3 23.18 3 16S8.82 3 16 3s13 5.82 13 13-5.82 13-13 13z"/><path d="M11.086 22.086l2.829 2.829 8.914-8.914-8.914-8.914-2.828 2.828 6.086 6.086z"/></symbol><symbol id="icon-circle-left" viewBox="0 0 32 32"><path d="M16 32c8.837 0 16-7.163 16-16S24.837 0 16 0 0 7.163 0 16s7.163 16 16 16zm0-29c7.18 0 13 5.82 13 13s-5.82 13-13 13S3 23.18 3 16 8.82 3 16 3z"/><path d="M20.914 9.914l-2.829-2.829-8.914 8.914 8.914 8.914 2.828-2.828-6.086-6.086z"/></symbol><symbol id="icon-checkbox-checked" viewBox="0 0 32 32"><path d="M28 0H4C1.8 0 0 1.8 0 4v24c0 2.2 1.8 4 4 4h24c2.2 0 4-1.8 4-4V4c0-2.2-1.8-4-4-4zM14 24.828l-7.414-7.414 2.828-2.828L14 19.172l9.586-9.586 2.828 2.828L14 24.828z"/></symbol><symbol id="icon-instagram" viewBox="0 0 32 32"><path d="M16 2.881c4.275 0 4.781.019 6.462.094 1.563.069 2.406.331 2.969.55a4.952 4.952 0 011.837 1.194 5.015 5.015 0 011.2 1.838c.219.563.481 1.412.55 2.969.075 1.688.094 2.194.094 6.463s-.019 4.781-.094 6.463c-.069 1.563-.331 2.406-.55 2.969a4.94 4.94 0 01-1.194 1.837 5.02 5.02 0 01-1.837 1.2c-.563.219-1.413.481-2.969.55-1.688.075-2.194.094-6.463.094s-4.781-.019-6.463-.094c-1.563-.069-2.406-.331-2.969-.55a4.952 4.952 0 01-1.838-1.194 5.02 5.02 0 01-1.2-1.837c-.219-.563-.481-1.413-.55-2.969-.075-1.688-.094-2.194-.094-6.463s.019-4.781.094-6.463c.069-1.563.331-2.406.55-2.969a4.964 4.964 0 011.194-1.838 5.015 5.015 0 011.838-1.2c.563-.219 1.412-.481 2.969-.55 1.681-.075 2.188-.094 6.463-.094zM16 0c-4.344 0-4.887.019-6.594.094-1.7.075-2.869.35-3.881.744-1.056.412-1.95.956-2.837 1.85a7.833 7.833 0 00-1.85 2.831C.444 6.538.169 7.7.094 9.4.019 11.113 0 11.656 0 16s.019 4.887.094 6.594c.075 1.7.35 2.869.744 3.881.413 1.056.956 1.95 1.85 2.837a7.82 7.82 0 002.831 1.844c1.019.394 2.181.669 3.881.744 1.706.075 2.25.094 6.594.094s4.888-.019 6.594-.094c1.7-.075 2.869-.35 3.881-.744 1.05-.406 1.944-.956 2.831-1.844s1.438-1.781 1.844-2.831c.394-1.019.669-2.181.744-3.881.075-1.706.094-2.25.094-6.594s-.019-4.887-.094-6.594c-.075-1.7-.35-2.869-.744-3.881a7.506 7.506 0 00-1.831-2.844A7.82 7.82 0 0026.482.843C25.463.449 24.301.174 22.601.099c-1.712-.081-2.256-.1-6.6-.1z"/><path d="M16 7.781c-4.537 0-8.219 3.681-8.219 8.219s3.681 8.219 8.219 8.219 8.219-3.681 8.219-8.219A8.221 8.221 0 0016 7.781zm0 13.55a5.331 5.331 0 110-10.663 5.331 5.331 0 010 10.663zM26.462 7.456a1.919 1.919 0 11-3.838 0 1.919 1.919 0 013.838 0z"/></symbol><symbol id="icon-twitter" viewBox="0 0 32 32"><path d="M32 7.075a12.941 12.941 0 01-3.769 1.031 6.601 6.601 0 002.887-3.631 13.21 13.21 0 01-4.169 1.594A6.565 6.565 0 0022.155 4a6.563 6.563 0 00-6.563 6.563c0 .512.056 1.012.169 1.494A18.635 18.635 0 012.23 5.195a6.56 6.56 0 00-.887 3.3 6.557 6.557 0 002.919 5.463 6.565 6.565 0 01-2.975-.819v.081a6.565 6.565 0 005.269 6.437 6.574 6.574 0 01-2.968.112 6.588 6.588 0 006.131 4.563 13.17 13.17 0 01-9.725 2.719 18.568 18.568 0 0010.069 2.95c12.075 0 18.681-10.006 18.681-18.681 0-.287-.006-.569-.019-.85A13.216 13.216 0 0032 7.076z"/></symbol><symbol id="icon-github" viewBox="0 0 32 32"><path d="M16 .395c-8.836 0-16 7.163-16 16 0 7.069 4.585 13.067 10.942 15.182.8.148 1.094-.347 1.094-.77 0-.381-.015-1.642-.022-2.979-4.452.968-5.391-1.888-5.391-1.888-.728-1.849-1.776-2.341-1.776-2.341-1.452-.993.11-.973.11-.973 1.606.113 2.452 1.649 2.452 1.649 1.427 2.446 3.743 1.739 4.656 1.33.143-1.034.558-1.74 1.016-2.14-3.554-.404-7.29-1.777-7.29-7.907 0-1.747.625-3.174 1.649-4.295-.166-.403-.714-2.03.155-4.234 0 0 1.344-.43 4.401 1.64a15.353 15.353 0 014.005-.539c1.359.006 2.729.184 4.008.539 3.054-2.07 4.395-1.64 4.395-1.64.871 2.204.323 3.831.157 4.234 1.026 1.12 1.647 2.548 1.647 4.295 0 6.145-3.743 7.498-7.306 7.895.574.497 1.085 1.47 1.085 2.963 0 2.141-.019 3.864-.019 4.391 0 .426.288.925 1.099.768C27.421 29.457 32 23.462 32 16.395c0-8.837-7.164-16-16-16z"/></symbol><symbol id="icon-tux" viewBox="0 0 32 32"><path d="M17.739 23.029c-2.561 1.191-4.942 1.179-6.542 1.063-1.908-.138-3.442-.66-4.117-1.117a.909.909 0 10-1.019 1.505c1.084.734 3.002 1.28 5.005 1.424.34.024.712.04 1.114.04 1.743 0 3.957-.166 6.326-1.268a.91.91 0 00-.767-1.648zm10.103-1.347c.087-7.896.899-22.819-14.218-21.613C-1.301 1.27 2.656 17.037 2.434 22.317 2.237 25.11 1.31 28.525 0 32h4.034c.415-1.473.72-2.929.851-4.317.243.17.503.334.781.491.452.266.84.62 1.251.995.961.876 2.05 1.868 4.179 1.992.143.008.287.012.427.012 2.153 0 3.625-.942 4.809-1.699.567-.363 1.057-.676 1.518-.827 1.31-.41 2.454-1.072 3.309-1.914a5.64 5.64 0 00.374-.405c.476 1.746 1.129 3.711 1.853 5.672H32c-2.068-3.195-4.201-6.324-4.158-10.318zM3.878 17.386v-.001c-.148-2.577 1.085-4.745 2.754-4.842s3.142 1.913 3.291 4.49v.001c.008.139.011.276.012.413a6.46 6.46 0 00-1.434.551l-.005-.057v-.001c-.143-1.463-.924-2.567-1.745-2.467s-1.371 1.367-1.228 2.83v.001c.062.638.246 1.207.501 1.639-.064.05-.243.182-.45.333l-.572.42c-.621-.815-1.047-1.987-1.123-3.309zm16.911 6.37c-.059 1.362-1.841 2.643-3.487 3.158l-.009.003c-.684.222-1.295.613-1.941 1.026-1.085.695-2.208 1.413-3.829 1.413-.106 0-.215-.003-.323-.009-1.485-.087-2.179-.72-3.059-1.521-.464-.423-.943-.86-1.562-1.223l-.013-.008c-1.335-.753-2.163-1.69-2.216-2.506-.026-.406.154-.757.537-1.044.832-.624 1.39-1.032 1.759-1.302.41-.3.533-.39.625-.477.066-.062.136-.131.213-.205.764-.743 2.043-1.986 4.005-1.986 1.2 0 2.528.462 3.943 1.372.666.434 1.246.634 1.981.887.505.174 1.077.372 1.843.7l.012.005c.715.294 1.559.83 1.521 1.717zm-.394-3.2a5.876 5.876 0 00-.43-.196 25.213 25.213 0 00-1.704-.656 4.168 4.168 0 00.426-1.789v-.001c.035-1.637-.79-2.966-1.844-2.968s-1.936 1.322-1.971 2.959v.001l-.001.16a9.182 9.182 0 00-1.911-.649 10.966 10.966 0 01-.008-.185v-.002c-.061-2.982 1.769-5.45 4.086-5.513s4.245 2.303 4.305 5.285v.002c.027 1.348-.333 2.59-.949 3.552z"/></symbol><symbol id="icon-zoom-in" viewBox="0 0 32 32"><path d="M31.008 27.231l-7.58-6.447c-.784-.705-1.622-1.029-2.299-.998a11.954 11.954 0 002.87-7.787c0-6.627-5.373-12-12-12s-12 5.373-12 12 5.373 12 12 12c2.972 0 5.691-1.081 7.787-2.87-.031.677.293 1.515.998 2.299l6.447 7.58c1.104 1.226 2.907 1.33 4.007.23s.997-2.903-.23-4.007zM12 20a8 8 0 110-16 8 8 0 010 16zm2-14h-4v4H6v4h4v4h4v-4h4v-4h-4z"/></symbol><symbol id="icon-play3" viewBox="0 0 32 32"><path d="M6 4l20 12L6 28z"/></symbol><symbol id="icon-circle-left" viewBox="0 0 32 32"><path d="M16 32c8.837 0 16-7.163 16-16S24.837 0 16 0 0 7.163 0 16s7.163 16 16 16zm0-29c7.18 0 13 5.82 13 13s-5.82 13-13 13S3 23.18 3 16 8.82 3 16 3z"/><path d="M20.914 9.914l-2.829-2.829-8.914 8.914 8.914 8.914 2.828-2.828-6.086-6.086z"/></symbol></defs></svg>